<?xml version="1.0" standalone="no"?>
<!DOCTYPE svg PUBLIC "-//W3C//DTD SVG 20010904//EN"
 "http://www.w3.org/TR/2001/REC-SVG-20010904/DTD/svg10.dtd">
<svg version="1.0" xmlns="http://www.w3.org/2000/svg"
 width="762.000000pt" height="762.000000pt" viewBox="0 0 762.000000 762.000000"
 preserveAspectRatio="xMidYMid meet">
<metadata>
Created by potrace 1.14, written by Peter Selinger 2001-2017
</metadata>
<g transform="translate(0.000000,762.000000) scale(0.100000,-0.100000)"
fill="#000000" stroke="none">
<path d="M1645 7579 c-38 -5 -125 -23 -192 -39 -700 -170 -1235 -704 -1403
-1403 -16 -67 -34 -160 -40 -207 -14 -117 -14 -4123 0 -4240 49 -398 236 -788
520 -1084 294 -306 711 -515 1130 -566 117 -14 4183 -14 4300 0 419 51 836
260 1130 566 284 296 471 686 520 1084 14 117 14 4123 0 4240 -49 398 -236
788 -520 1084 -294 306 -711 515 -1130 566 -106 13 -4213 12 -4315 -1z m2182
-7394 c0 -8 -4 -12 -9 -9 -5 3 -6 10 -3 15 9 13 12 11 12 -6z"/>
</g>
</svg>
